<svg width="16" height="14" viewBox="0 0 16 14" fill="none" xmlns="http://www.w3.org/2000/svg">
    <path d="M4.45988 8.1608L1.52237 4.79824L4.45988 1.43567C4.69725 1.16364 4.66956 0.75055 4.39753 0.512956C4.1255 0.275581 3.71263 0.303487 3.47481 0.5753L0.161531 4.36814C-0.0538438 4.61446 -0.0538438 4.98221 0.161531 5.22852L3.47484 9.02139C3.60431 9.16918 3.78547 9.24505 3.96769 9.24505C4.12028 9.24505 4.2735 9.19186 4.39753 9.08352C4.66959 8.84593 4.69747 8.43283 4.45988 8.1608Z" fill="#9DA8B2"/>
    <path d="M11.2478 4.14429H0.653938C0.29275 4.14429 0 4.43701 0 4.79822C0 5.15941 0.29275 5.45216 0.653938 5.45216H11.2478C13.1471 5.45216 14.6921 6.99719 14.6921 8.89626C14.6921 10.7953 13.1471 12.3403 11.2478 12.3403H1.52587C1.16469 12.3403 0.871938 12.6331 0.871938 12.9943C0.871938 13.3555 1.16469 13.6482 1.52587 13.6482H11.2478C13.8679 13.6482 16 11.5164 16 8.89626C16 6.27613 13.8682 4.14429 11.2478 4.14429Z" fill="#9DA8B2"/>
</svg>
