<svg width="20" height="26" viewBox="0 0 20 26" fill="none" xmlns="http://www.w3.org/2000/svg">
<path d="M9.99989 0C8.69627 0 7.63623 1.06004 7.63623 2.36366C7.63623 3.66728 8.69627 4.72731 9.99989 4.72731C11.3035 4.72731 12.3636 3.66728 12.3636 2.36366C12.3636 1.06004 11.3035 0 9.99989 0ZM9.99989 3.54546C9.34841 3.54546 8.81809 3.01513 8.81809 2.36366C8.81809 1.71218 9.34841 1.18186 9.99989 1.18186C10.6514 1.18186 11.1817 1.71212 11.1817 2.36366C11.1817 3.01519 10.6514 3.54546 9.99989 3.54546Z" fill="#489FFE"/>
<path d="M2.90906 0C1.60545 0 0.54541 1.06004 0.54541 2.36366C0.54541 3.66728 1.60545 4.72731 2.90906 4.72731C4.21268 4.72731 5.27272 3.66728 5.27272 2.36366C5.27272 1.06004 4.21263 0 2.90906 0ZM2.90906 3.54546C2.25759 3.54546 1.72726 3.01513 1.72726 2.36366C1.72726 1.71218 2.25759 1.18186 2.90906 1.18186C3.56054 1.18186 4.09086 1.71212 4.09086 2.36366C4.09086 3.01519 3.56054 3.54546 2.90906 3.54546Z" fill="#489FFE"/>
<path d="M17.0908 4.72726C18.3944 4.72726 19.4545 3.66722 19.4545 2.3636C19.4545 1.05998 18.3944 0 17.0908 0C15.7873 0 14.7272 1.06004 14.7272 2.36366C14.7272 3.66728 15.7872 4.72726 17.0908 4.72726ZM17.0908 1.1818C17.7423 1.1818 18.2726 1.71212 18.2726 2.3636C18.2726 3.01508 17.7423 3.54546 17.0908 3.54546C16.4394 3.54546 15.909 3.01513 15.909 2.36366C15.909 1.71218 16.4393 1.1818 17.0908 1.1818Z" fill="#489FFE"/>
<path d="M9.99989 7.09088C8.69627 7.09088 7.63623 8.15092 7.63623 9.45454C7.63623 10.7582 8.69627 11.8182 9.99989 11.8182C11.3035 11.8182 12.3636 10.7582 12.3636 9.45454C12.3636 8.15092 11.3035 7.09088 9.99989 7.09088ZM9.99989 10.6363C9.34841 10.6363 8.81809 10.106 8.81809 9.45454C8.81809 8.80306 9.34841 8.27274 9.99989 8.27274C10.6514 8.27274 11.1817 8.803 11.1817 9.45454C11.1817 10.1061 10.6514 10.6363 9.99989 10.6363Z" fill="#489FFE"/>
<path d="M2.90906 7.09088C1.60545 7.09088 0.54541 8.15092 0.54541 9.45454C0.54541 10.7582 1.60545 11.8182 2.90906 11.8182C4.21268 11.8182 5.27272 10.7582 5.27272 9.45454C5.27272 8.15092 4.21263 7.09088 2.90906 7.09088ZM2.90906 10.6363C2.25759 10.6363 1.72726 10.106 1.72726 9.45454C1.72726 8.80306 2.25759 8.27274 2.90906 8.27274C3.56054 8.27274 4.09086 8.803 4.09086 9.45454C4.09086 10.1061 3.56054 10.6363 2.90906 10.6363Z" fill="#489FFE"/>
<path d="M17.0908 7.09088C15.7872 7.09088 14.7272 8.15092 14.7272 9.45454C14.7272 10.7582 15.7872 11.8182 17.0908 11.8182C18.3944 11.8182 19.4545 10.7582 19.4545 9.45454C19.4545 8.15092 18.3944 7.09088 17.0908 7.09088ZM17.0908 10.6363C16.4394 10.6363 15.909 10.106 15.909 9.45454C15.909 8.80306 16.4394 8.27274 17.0908 8.27274C17.7423 8.27274 18.2726 8.80306 18.2726 9.45454C18.2726 10.106 17.7423 10.6363 17.0908 10.6363Z" fill="#489FFE"/>
<path d="M9.99989 14.1817C8.69627 14.1817 7.63623 15.2417 7.63623 16.5454C7.63623 17.849 8.69627 18.909 9.99989 18.909C11.3035 18.909 12.3636 17.849 12.3636 16.5454C12.3636 15.2417 11.3035 14.1817 9.99989 14.1817ZM9.99989 17.7272C9.34841 17.7272 8.81809 17.1968 8.81809 16.5454C8.81809 15.8939 9.34841 15.3636 9.99989 15.3636C10.6514 15.3636 11.1817 15.8938 11.1817 16.5454C11.1817 17.1969 10.6514 17.7272 9.99989 17.7272Z" fill="#489FFE"/>
<path d="M9.99989 21.2726C8.69627 21.2726 7.63623 22.3327 7.63623 23.6363C7.63623 24.9399 8.69627 26 9.99989 26C11.3035 26 12.3636 24.9399 12.3636 23.6363C12.3636 22.3327 11.3035 21.2726 9.99989 21.2726ZM9.99989 24.8181C9.34841 24.8181 8.81809 24.2878 8.81809 23.6363C8.81809 22.9848 9.34841 22.4545 9.99989 22.4545C10.6514 22.4545 11.1817 22.9848 11.1817 23.6363C11.1817 24.2878 10.6514 24.8181 9.99989 24.8181Z" fill="#489FFE"/>
<path d="M2.90906 14.1817C1.60545 14.1817 0.54541 15.2417 0.54541 16.5454C0.54541 17.849 1.60545 18.909 2.90906 18.909C4.21268 18.909 5.27272 17.849 5.27272 16.5454C5.27272 15.2417 4.21263 14.1817 2.90906 14.1817ZM2.90906 17.7272C2.25759 17.7272 1.72726 17.1968 1.72726 16.5454C1.72726 15.8939 2.25759 15.3636 2.90906 15.3636C3.56054 15.3636 4.09086 15.8938 4.09086 16.5454C4.09086 17.1969 3.56054 17.7272 2.90906 17.7272Z" fill="#489FFE"/>
<path d="M17.0908 14.1817C15.7872 14.1817 14.7272 15.2417 14.7272 16.5454C14.7272 17.849 15.7872 18.909 17.0908 18.909C18.3944 18.909 19.4545 17.849 19.4545 16.5454C19.4545 15.2417 18.3944 14.1817 17.0908 14.1817ZM17.0908 17.7272C16.4394 17.7272 15.909 17.1968 15.909 16.5454C15.909 15.8939 16.4394 15.3636 17.0908 15.3636C17.7423 15.3636 18.2726 15.8939 18.2726 16.5454C18.2726 17.1968 17.7423 17.7272 17.0908 17.7272Z" fill="#489FFE"/>
</svg>
