<svg width="25" height="25" viewBox="0 0 25 25" fill="none" xmlns="http://www.w3.org/2000/svg">
<g clip-path="url(#clip0)">
<path d="M8.24412 0H6.96012C5.62215 0 4.53369 1.08846 4.53369 2.42643V22.5736C4.53369 23.9115 5.62215 25.0001 6.96012 25.0001H8.24412C9.5821 25.0001 10.6706 23.9115 10.6706 22.5736V2.42643C10.6706 1.08846 9.58202 0 8.24412 0ZM9.5559 22.5735C9.5559 23.2968 8.96737 23.8854 8.24404 23.8854H6.96012C6.2368 23.8854 5.64834 23.2968 5.64834 22.5735V2.42643C5.64834 1.70311 6.2368 1.11465 6.96012 1.11465H8.24412C8.96745 1.11465 9.55598 1.70311 9.55598 2.42643V22.5735H9.5559Z" fill="#489FFE"/>
<path d="M19.0014 0H17.7174C16.3794 0 15.2909 1.08846 15.2909 2.42643V22.5736C15.2909 23.9115 16.3794 25.0001 17.7174 25.0001H19.0014C20.3394 25.0001 21.4279 23.9115 21.4279 22.5736V2.42643C21.4279 1.08846 20.3394 0 19.0014 0ZM20.3132 22.5735C20.3132 23.2968 19.7248 23.8854 19.0014 23.8854H17.7174C16.9941 23.8854 16.4055 23.2968 16.4055 22.5735V2.42643C16.4055 1.70311 16.9941 1.11465 17.7174 1.11465H19.0014C19.7248 1.11465 20.3132 1.70311 20.3132 2.42643V22.5735Z" fill="#489FFE"/>
</g>
<defs>
<clipPath id="clip0">
<rect width="25" height="25" fill="white"/>
</clipPath>
</defs>
</svg>
