<svg width="16" height="16" viewBox="0 0 16 16" fill="none" xmlns="http://www.w3.org/2000/svg">
<path d="M13.6571 2.34286C12.2095 0.895238 10.2095 0 8 0C5.79048 0 3.79048 0.895238 2.34286 2.34286C0.895238 3.79048 0 5.79048 0 8C0 10.2095 0.895238 12.2095 2.34286 13.6571C3.79048 15.1048 5.79048 16 8 16C10.2095 16 12.2095 15.1048 13.6571 13.6571C15.1048 12.2095 16 10.2095 16 8C16 5.79048 15.1048 3.79048 13.6571 2.34286ZM12.9714 12.9714C11.6952 14.2476 9.94286 15.0286 8 15.0286C6.05714 15.0286 4.30476 14.2476 3.02857 12.9714C1.77143 11.6952 0.971429 9.94286 0.971429 8C0.971429 6.05714 1.75238 4.30476 3.02857 3.02857C4.30476 1.75238 6.05714 0.971429 8 0.971429C9.94286 0.971429 11.6952 1.75238 12.9714 3.02857C14.2476 4.30476 15.0286 6.05714 15.0286 8C15.0286 9.94286 14.2286 11.6952 12.9714 12.9714Z" fill="#232E42"/>
<path d="M12.4381 7.42858C12.4001 7.39049 12.3429 7.31429 12.2858 7.2381C12.2667 7.21906 12.2667 7.21906 12.2477 7.20001C12.1905 7.14287 12.1334 7.10477 12.0572 7.06668L9.23815 5.44763C9.23815 5.44763 9.2191 5.44763 9.2191 5.42858L6.38101 3.79049C6.13339 3.63811 5.84767 3.61906 5.58101 3.67621C5.31434 3.7524 5.08577 3.92382 4.93339 4.17144C4.87624 4.24763 4.8572 4.34287 4.8191 4.41906C4.80005 4.4762 4.80005 4.55239 4.78101 4.62858C4.78101 4.64763 4.78101 4.68573 4.78101 4.70478V8.00001V11.2762C4.78101 11.5619 4.89529 11.8286 5.08577 12.019C5.27624 12.2095 5.54291 12.3238 5.82862 12.3238C5.92386 12.3238 6.03815 12.3048 6.13339 12.2667C6.22862 12.2286 6.32386 12.1905 6.40005 12.1333L9.20005 10.5143L9.23815 10.4952L12.0572 8.8762C12.0762 8.8762 12.0762 8.85715 12.0953 8.85715C12.3239 8.70477 12.4953 8.4762 12.5524 8.22858C12.6286 7.96191 12.5905 7.6762 12.4381 7.42858ZM11.6191 8.01906C11.6191 8.0381 11.6001 8.05715 11.581 8.05715H11.562L8.76196 9.69524L8.74291 9.71429L5.94291 11.3333C5.92386 11.3333 5.92386 11.3524 5.90482 11.3524C5.90482 11.3524 5.88577 11.3524 5.88577 11.3714H5.86672C5.84767 11.3714 5.82862 11.3524 5.80958 11.3524C5.79053 11.3333 5.79053 11.3143 5.79053 11.2952V8.00001V4.72382V4.70478V4.68573C5.80958 4.66668 5.82862 4.64763 5.84767 4.64763C5.86672 4.64763 5.88577 4.64763 5.90482 4.64763L8.72386 6.26668L8.74291 6.28573L11.581 7.92382L11.6001 7.94287L11.6191 7.96191C11.6191 7.98096 11.6191 8.00001 11.6191 8.01906Z" fill="#232E42"/>
</svg>
