<svg width="24" height="12" viewBox="0 0 24 12" fill="none" xmlns="http://www.w3.org/2000/svg">
<path d="M18.8572 0.857117C16.0212 0.857117 13.7143 3.16405 13.7143 5.99996C13.7143 7.32187 14.2295 8.51656 15.0519 9.42853H8.94809C9.77051 8.51656 10.2857 7.32187 10.2857 5.99996C10.2857 3.16399 7.97876 0.857117 5.14284 0.857117C2.30693 0.857117 0 3.16405 0 6.00002C0 8.83599 2.30693 11.1429 5.14284 11.1429H18.8572C21.6931 11.1429 24 8.83593 24 6.00002C24 3.16411 21.6931 0.857117 18.8572 0.857117V0.857117ZM1.71428 6.00002C1.71428 4.1091 3.25193 2.57146 5.14284 2.57146C7.03376 2.57146 8.57141 4.1091 8.57141 6.00002C8.57141 7.89093 7.03376 9.42858 5.14284 9.42858C3.25193 9.42858 1.71428 7.89093 1.71428 6.00002V6.00002ZM18.8572 9.42858C16.9662 9.42858 15.4286 7.89093 15.4286 6.00002C15.4286 4.1091 16.9662 2.57146 18.8572 2.57146C20.7481 2.57146 22.2857 4.1091 22.2857 6.00002C22.2857 7.89093 20.7481 9.42858 18.8572 9.42858Z" fill="#489FFE"/>
</svg>
