<svg width="24" height="24" viewBox="0 0 24 24" fill="none" xmlns="http://www.w3.org/2000/svg">
<g clip-path="url(#clip0)">
<path d="M17.2492 24C16.4745 24 15.7063 23.863 14.9552 23.5901C11.646 22.388 8.57444 20.4301 6.07236 17.9281C3.57027 15.4261 1.61239 12.3544 0.410326 9.04529C0.024045 7.98183 -0.0899504 6.88406 0.0716211 5.78236C0.222974 4.7504 0.622708 3.74858 1.22765 2.88518C1.83527 2.01798 2.64533 1.2967 3.57023 0.799327C4.55653 0.268958 5.63306 0 6.77002 0C7.12363 0 7.42924 0.247068 7.50335 0.592804L8.68052 6.08628C8.73381 6.33504 8.65736 6.59387 8.47751 6.77377L6.46605 8.78519C8.36356 12.5578 11.4426 15.6368 15.2152 17.5343L17.2266 15.5229C17.4065 15.343 17.6654 15.2667 17.9141 15.3199L23.4076 16.497C23.7534 16.5711 24.0004 16.8767 24.0004 17.2304C24.0004 18.3673 23.7314 19.4439 23.201 20.4302C22.7036 21.3551 21.9823 22.1652 21.1151 22.7728C20.2518 23.3777 19.25 23.7774 18.218 23.9288C17.8946 23.9763 17.5713 24 17.2492 24ZM6.17079 1.53275C4.67109 1.69831 3.33999 2.48437 2.45605 3.74596C1.46206 5.16457 1.23028 6.90942 1.82013 8.5332C4.13116 14.8951 9.10537 19.8693 15.4673 22.1803C17.091 22.7702 18.8359 22.5385 20.2545 21.5444C21.5161 20.6605 22.3022 19.3294 22.4677 17.8297L17.9988 16.8721L15.8981 18.9727C15.6746 19.1963 15.3349 19.2556 15.0489 19.1212C10.5871 17.0251 6.97542 13.4134 4.87925 8.95154C4.74487 8.66547 4.80421 8.32583 5.02775 8.10234L7.12841 6.00168L6.17079 1.53275Z" fill="#489FFE"/>
<path d="M21.9606 5.80808C22.1558 5.61282 22.1558 5.29624 21.9606 5.10098L18.7786 1.91899C18.5833 1.72373 18.2667 1.72373 18.0715 1.91899C17.8762 2.11426 17.8762 2.43084 18.0715 2.6261L20.8999 5.45453L18.0715 8.28296C17.8762 8.47822 17.8762 8.7948 18.0715 8.99006C18.2667 9.18532 18.5833 9.18532 18.7786 8.99006L21.9606 5.80808ZM12 5.95453L21.607 5.95453V4.95453L12 4.95453V5.95453Z" fill="#489FFE"/>
</g>
<defs>
<clipPath id="clip0">
<rect width="24" height="24" fill="white"/>
</clipPath>
</defs>
</svg>
