<svg width="23" height="22" viewBox="0 0 23 22" fill="none" xmlns="http://www.w3.org/2000/svg">
    <g clip-path="url(#clip0)">
        <path d="M18.3003 16.7256L16.0994 13.7085C15.3133 12.6309 13.73 12.7187 13.2157 13.8416C12.8387 14.6153 11.8762 14.9088 11.0865 14.5789C9.33793 13.7949 7.20385 10.9769 6.99902 8.9756C6.83379 8.10384 7.49361 7.28783 8.34219 7.16076C9.56401 7.00763 10.1254 5.51907 9.33939 4.44151L7.13846 1.42437C6.49786 0.653734 5.41346 0.457576 4.69856 0.983012L2.75811 2.4092C0.8059 3.92679 2.0802 9.11473 5.77461 14.1792C9.46902 19.2437 13.9997 22.1211 16.0423 20.6198L17.9827 19.1936C18.7094 18.5768 18.8506 17.4799 18.3003 16.7256Z" fill="white"/>
    </g>
    <path d="M22.3533 8.6768C22.5486 8.48153 22.5486 8.16495 22.3533 7.96969L19.1714 4.78771C18.9761 4.59245 18.6595 4.59245 18.4643 4.78771C18.269 4.98297 18.269 5.29955 18.4643 5.49482L21.2927 8.32324L18.4643 11.1517C18.269 11.3469 18.269 11.6635 18.4643 11.8588C18.6595 12.054 18.9761 12.054 19.1714 11.8588L22.3533 8.6768ZM13.1934 8.82324L21.9998 8.82324V7.82324L13.1934 7.82324V8.82324Z" fill="white"/>
    <defs>
        <clipPath id="clip0">
            <rect width="19.7057" height="18.514" rx="8" transform="matrix(0.982715 0.185124 -0.132 0.99125 2.44385 0)" fill="white"/>
        </clipPath>
    </defs>
</svg>